<svg version="1.2" xmlns="http://www.w3.org/2000/svg" viewBox="0 0 1024 1024" width="1024" height="1024">
	<defs>
		<linearGradient id="g1" x2="1" gradientUnits="userSpaceOnUse" gradientTransform="matrix(760.661,741.771,-741.771,760.661,109.71,124.969)">
			<stop offset="0" stop-color="#fd7220"/>
			<stop offset="1" stop-color="#d24d0c"/>
		</linearGradient>
	</defs>
	<style>
		.s0 { fill: url(#g1) } 
		.s1 { fill: #fdfdfd } 
	</style>
	<g id="Layer 1">
		<g id="Folder 1">
			<path id="Shape 2" fill-rule="evenodd" class="s0" d="m109.62 0.5h805.5c60.2 0 109 48.8 109 109v805.5c0 60.2-48.8 109-109 109h-805.5c-60.19 0-109-48.8-109-109v-805.5c0-60.2 48.81-109 109-109z"/>
			<path class="s1" d="m548 904.01c72.41-33.84 123.24-109.58 133.74-190.46 6.4-53.96-8.25-103.21-12.91-120.07-0.95-3.45-2.28-6.37-3.33-8.75-0.54-1.23 1.35-2.41 6.09-3.89 14.96-4.68 25.42-16.35 28.57-31.89 1.78-8.7 0.4-18.5-4.29-30.55-1.32-3.42-2-6.44-1.48-6.7 1.15-0.57 26.81-4.96 41.52-7.08 10.27-1.47 10.81-1.71 10.44-4.46-1.12-8.58-21.14-30.67-35.65-39.34-6.63-3.96-8.02-5.48-10.04-10.88-4.01-10.84-9.45-20.3-16.06-27.97l-6.1-7.11c18.54-13.3 21.31-66.86-39.33-55.22q0.2-1.79 0.21-3.63c0.37-25.44-19.15-40.49-44.47-40.49-24.35 0-41.87 20.32-43.34 39.77-4.7-2.64-12.03-7.5-17.77-8.42-23.56-3.77-45.67 8.3-49.06 29.47-2.1 13.1 3.35 25.82 13.4 34.51q0.32 0.5 0.33 0.62c0 0.24-4.12 3.01-9.14 6.16-28.52 17.91-58.19 50.43-81.34 89.14-24.63 41.21-35.31 55.76-53.36 72.74-24.27 22.83-56.21 38.17-91.39 43.88-11.7 1.91-49.65 2.42-63.1 0.85l-6.76-0.79-1.18-18.45c-2.16-33.95 2.9-83.67 12.83-126.21 16.19-69.35 49.18-145.76 89.72-207.77 11.14-17.04 36.78-50.57 48.28-63.11 15.77-17.22 34.62-34.65 50.31-46.52 63.93-48.39 125.81-58.29 189.01-30.26 98.11 43.53 194.19 180.81 233.26 333.37 10.47 40.85 14.34 68.96 15.27 110.73 1.21 54.15-4.72 91.98-21.43 136.89-35.66 95.79-117.44 167.17-218.98 191.1-13.33 3.15-39.23 6.6-49.12 6.56l-5.68-0.02zm-146.26-20.96c-55.35-8.94-114.99-50.43-154.36-107.37-15.44-22.32-22.69-37.15-33.47-62.1-5.48-12.69-13.27-41.56-13.31-45.34-0.03-1.61 1.27-0.15 11.81 0.77 88.26 7.75 149.74-18.33 193.8-70.35 17.32-20.45 25.67-34.67 46.8-79.76 23.98-51.11 59-89.27 95.95-104.48 27.51-11.33 59.6-10.98 85.27 0.95 14.43 6.71 28.85 19.79 35.85 32.56 3.03 5.51 5.91 12.31 6.43 15.09 0.83 4.74 1.44 5.33 9.18 8.93 8.15 3.79 22.29 16.41 23.84 18.34 0.65 0.81-5.02 0.58-9.7 1.01-18.64 1.68-36.84 9.36-48.34 18.03-6.68 5.02-14.04 15.55-16.95 24.23-4.9 14.61-4.48 26.21 2.63 73.22 4.23 27.91 5.66 60.66 3.45 78.47-6.21 50.17-27.04 94.86-61.93 132.89-30.76 33.52-76.34 58.33-119.24 64.91-13.87 2.14-44.56 2.14-57.71 0zm-72.39-575.3v58.18h58.18v-58.18zm74.41 56.82v37.89h39.24v-37.89zm-8.12-112.29v48.71h47.35v-48.71zm225.61 214.27c0-9.26-7.49-16.74-16.75-16.74-9.26 0-16.74 7.48-16.74 16.74 0 9.26 7.48 16.75 16.74 16.75 9.26 0 16.75-7.49 16.75-16.75z"/>
		</g>
	</g>
</svg>