<svg version="1.2" xmlns="http://www.w3.org/2000/svg" viewBox="0 0 1024 1024" width="1024" height="1024">
	<style>
		.s0 { fill: #fdfdfd } 
	</style>
	<g id="Layer 1">
		<g id="Folder 1">
			<path id="Layer copy" class="s0" d="m559.63 1016.5c93.37-43.63 158.91-141.28 172.44-245.56 8.26-69.58-10.63-133.08-16.64-154.82-1.23-4.45-2.94-8.21-4.29-11.28-0.7-1.59 1.74-3.11 7.85-5.02 19.29-6.03 32.78-21.08 36.84-41.11 2.29-11.22 0.51-23.86-5.53-39.39-1.71-4.41-2.58-8.31-1.92-8.65 1.48-0.73 34.58-6.38 53.54-9.12 13.24-1.9 13.94-2.21 13.47-5.75-1.45-11.07-27.27-39.55-45.97-50.73-8.55-5.11-10.34-7.06-12.94-14.03-5.19-13.97-12.2-26.17-20.71-36.06l-7.87-9.17c23.9-17.15 27.48-86.2-50.72-71.19 0.19-1.54 0.26-3.1 0.28-4.68 0.48-32.81-24.7-52.22-57.34-52.22-31.39 0-53.98 26.2-55.89 51.29-6.05-3.41-15.5-9.67-22.9-10.85-30.38-4.87-58.89 10.69-63.27 37.99-2.7 16.89 4.33 33.29 17.29 44.49q0.41 0.65 0.42 0.8c0 0.31-5.3 3.88-11.78 7.95-36.77 23.09-75.02 65.02-104.87 114.93-31.77 53.13-45.53 71.89-68.8 93.78-31.3 29.45-72.48 49.22-117.84 56.59-15.09 2.46-64.02 3.12-81.36 1.09l-8.72-1.01-1.52-23.8c-2.79-43.77 3.73-107.88 16.54-162.73 20.88-89.41 63.41-187.94 115.69-267.89 14.36-21.97 47.41-65.2 62.24-81.37 20.34-22.2 44.64-44.67 64.88-59.98 82.42-62.39 162.21-75.16 243.69-39.02 126.51 56.12 250.38 233.13 300.76 429.84 13.51 52.67 18.49 88.92 19.7 142.77 1.55 69.82-6.09 118.59-27.63 176.5-45.99 123.51-151.44 215.54-282.36 246.4-17.18 4.05-50.57 8.51-63.32 8.46l-7.33-0.03zm-188.59-27.02c-71.36-11.53-148.26-65.03-199.02-138.44-19.91-28.79-29.25-47.9-43.15-80.07-7.07-16.36-17.11-53.58-17.17-58.46-0.03-2.08 1.64-0.2 15.23 0.99 113.8 9.99 193.07-23.63 249.88-90.7 22.33-26.38 33.1-44.71 60.34-102.84 30.92-65.91 76.08-115.11 123.72-134.72 35.46-14.61 76.84-14.15 109.93 1.23 18.62 8.64 37.21 25.52 46.23 41.97 3.91 7.11 7.63 15.88 8.29 19.47 1.08 6.11 1.86 6.86 11.84 11.51 10.5 4.88 28.74 21.15 30.74 23.64 0.83 1.04-6.47 0.75-12.51 1.3-24.04 2.17-47.5 12.08-62.33 23.25-8.61 6.48-18.1 20.05-21.85 31.24-6.32 18.84-5.78 33.79 3.4 94.42 5.44 35.98 7.29 78.2 4.45 101.17-8.01 64.69-34.88 122.31-79.86 171.34-39.66 43.22-98.43 75.21-153.74 83.7-17.88 2.75-57.46 2.75-74.42 0zm-93.33-741.77v75.01h75.01v-75.01zm95.95 73.26v48.85h50.59v-48.85zm-10.47-144.79v62.8h61.06v-62.8zm290.88 276.28c0-11.94-9.65-21.59-21.59-21.59-11.93 0-21.58 9.65-21.58 21.59 0 11.94 9.65 21.59 21.58 21.59 11.94 0 21.59-9.65 21.59-21.59z"/>
		</g>
	</g>
</svg>